<?xml version="1.0" encoding="UTF-8" standalone="no"?>
<svg
   xmlns:dc="http://purl.org/dc/elements/1.1/"
   xmlns:cc="http://creativecommons.org/ns#"
   xmlns:rdf="http://www.w3.org/1999/02/22-rdf-syntax-ns#"
   xmlns:svg="http://www.w3.org/2000/svg"
   xmlns="http://www.w3.org/2000/svg"
   xmlns:sodipodi="http://sodipodi.sourceforge.net/DTD/sodipodi-0.dtd"
   xmlns:inkscape="http://www.inkscape.org/namespaces/inkscape"
   width="64px"
   height="64px"
   viewBox="0 0 64 64"
   version="1.1"
   id="svg20148"
   sodipodi:docname="folder-recent.svg"
   inkscape:version="0.92.4 (fd57863, 2020-04-02)">
  <metadata
     id="metadata20154">
    <rdf:RDF>
      <cc:Work
         rdf:about="">
        <dc:format>image/svg+xml</dc:format>
        <dc:type
           rdf:resource="http://purl.org/dc/dcmitype/StillImage" />
      </cc:Work>
    </rdf:RDF>
  </metadata>
  <defs
     id="defs20152" />
  <sodipodi:namedview
     pagecolor="#ffffff"
     bordercolor="#666666"
     borderopacity="1"
     objecttolerance="10"
     gridtolerance="10"
     guidetolerance="10"
     inkscape:pageopacity="0"
     inkscape:pageshadow="2"
     inkscape:window-width="2492"
     inkscape:window-height="1384"
     id="namedview20150"
     showgrid="false"
     inkscape:zoom="3.6875"
     inkscape:cx="-58.033898"
     inkscape:cy="32"
     inkscape:window-x="68"
     inkscape:window-y="28"
     inkscape:window-maximized="1"
     inkscape:current-layer="svg20148" />
  <g
     id="surface1">
    <path
       style="stroke:none;fill-rule:nonzero;fill:#733447;fill-opacity:1"
       d="M 9.261719 7.113281 L 58.207031 7.113281 C 59.667969 7.113281 60.855469 8.300781 60.855469 9.761719 L 60.855469 25.636719 C 60.855469 27.097656 59.667969 28.28125 58.207031 28.28125 L 9.261719 28.28125 C 7.800781 28.28125 6.613281 27.097656 6.613281 25.636719 L 6.613281 9.761719 C 6.613281 8.300781 7.800781 7.113281 9.261719 7.113281 Z M 9.261719 7.113281 "
       id="path20139" />
    <path
       style=" stroke:none;fill-rule:nonzero;fill:rgb(96.078432%,96.078432%,96.078432%);fill-opacity:1;"
       d="M 31.75 15.050781 L 58.207031 15.050781 C 58.9375 15.050781 59.53125 15.644531 59.53125 16.375 L 59.53125 25.636719 C 59.53125 26.367188 58.9375 26.957031 58.207031 26.957031 L 31.75 26.957031 C 31.019531 26.957031 30.425781 26.367188 30.425781 25.636719 L 30.425781 16.375 C 30.425781 15.644531 31.019531 15.050781 31.75 15.050781 Z M 31.75 15.050781 "
       id="path20141" />
    <path
       style="stroke:none;fill-rule:nonzero;fill:#93394a;fill-opacity:1"
       d="M 5.292969 12.40625 C 3.824219 12.40625 2.644531 13.585938 2.644531 15.050781 L 2.644531 54.738281 C 2.644531 56.207031 3.824219 57.386719 5.292969 57.386719 L 58.207031 57.386719 C 59.675781 57.386719 60.855469 56.207031 60.855469 54.738281 L 60.855469 22.988281 C 60.855469 21.523438 59.675781 20.34375 58.207031 20.34375 L 41.011719 20.34375 C 39.542969 20.34375 38.363281 19.164062 38.363281 17.699219 L 38.363281 15.050781 C 38.363281 13.585938 37.183594 12.40625 35.71875 12.40625 Z M 5.292969 12.40625 "
       id="path20143" />
    <path
       style=" stroke:none;fill-rule:nonzero;fill:rgb(100%,100%,100%);fill-opacity:0.37451;"
       d="M 31.417969 25.636719 C 28.597656 25.636719 26.027344 26.738281 24.128906 28.535156 L 22.433594 26.839844 L 21.496094 33.386719 L 28.046875 32.453125 L 26 30.40625 C 27.414062 29.085938 29.308594 28.28125 31.417969 28.28125 C 35.839844 28.28125 39.355469 31.796875 39.355469 36.21875 C 39.355469 40.640625 35.839844 44.15625 31.417969 44.15625 C 28.734375 44.15625 26.390625 42.847656 24.953125 40.835938 C 24.683594 40.445312 24.21875 40.230469 23.746094 40.273438 C 23.269531 40.316406 22.855469 40.613281 22.660156 41.046875 C 22.464844 41.484375 22.519531 41.992188 22.800781 42.375 C 24.71875 45.058594 27.871094 46.800781 31.417969 46.800781 C 37.257812 46.800781 42.003906 42.058594 42.003906 36.21875 C 42.003906 30.378906 37.257812 25.636719 31.417969 25.636719 Z M 33.542969 31.492188 C 33.207031 31.5 32.886719 31.679688 32.703125 31.992188 L 30.632812 35.578125 L 25.445312 35.578125 C 25.078125 35.578125 24.785156 35.871094 24.785156 36.238281 C 24.785156 36.605469 25.078125 36.898438 25.445312 36.898438 L 30.359375 36.898438 C 30.441406 37.078125 30.578125 37.230469 30.761719 37.339844 C 31.238281 37.613281 31.84375 37.449219 32.117188 36.976562 L 32.167969 36.890625 C 32.480469 36.839844 32.722656 36.570312 32.722656 36.238281 C 32.722656 36.15625 32.707031 36.078125 32.679688 36.003906 L 34.421875 32.984375 C 34.699219 32.507812 34.535156 31.902344 34.058594 31.628906 C 33.894531 31.53125 33.71875 31.488281 33.542969 31.492188 Z M 33.542969 31.492188 "
       id="path20145" />
  </g>
</svg>
