<?xml version="1.0" encoding="UTF-8" standalone="no"?>
<svg
   xmlns:dc="http://purl.org/dc/elements/1.1/"
   xmlns:cc="http://creativecommons.org/ns#"
   xmlns:rdf="http://www.w3.org/1999/02/22-rdf-syntax-ns#"
   xmlns:svg="http://www.w3.org/2000/svg"
   xmlns="http://www.w3.org/2000/svg"
   xmlns:sodipodi="http://sodipodi.sourceforge.net/DTD/sodipodi-0.dtd"
   xmlns:inkscape="http://www.inkscape.org/namespaces/inkscape"
   width="64px"
   height="64px"
   viewBox="0 0 64 64"
   version="1.1"
   id="svg19508"
   sodipodi:docname="folder-public.svg"
   inkscape:version="0.92.4 (fd57863, 2020-04-02)">
  <metadata
     id="metadata19514">
    <rdf:RDF>
      <cc:Work
         rdf:about="">
        <dc:format>image/svg+xml</dc:format>
        <dc:type
           rdf:resource="http://purl.org/dc/dcmitype/StillImage" />
      </cc:Work>
    </rdf:RDF>
  </metadata>
  <defs
     id="defs19512" />
  <sodipodi:namedview
     pagecolor="#ffffff"
     bordercolor="#666666"
     borderopacity="1"
     objecttolerance="10"
     gridtolerance="10"
     guidetolerance="10"
     inkscape:pageopacity="0"
     inkscape:pageshadow="2"
     inkscape:window-width="2492"
     inkscape:window-height="1384"
     id="namedview19510"
     showgrid="false"
     inkscape:zoom="3.6875"
     inkscape:cx="-58.033898"
     inkscape:cy="32"
     inkscape:window-x="68"
     inkscape:window-y="28"
     inkscape:window-maximized="1"
     inkscape:current-layer="svg19508" />
  <g
     id="surface1">
    <path
       style="stroke:none;fill-rule:nonzero;fill:#733447;fill-opacity:1"
       d="M 9.261719 7.113281 L 58.207031 7.113281 C 59.667969 7.113281 60.855469 8.300781 60.855469 9.761719 L 60.855469 25.636719 C 60.855469 27.097656 59.667969 28.28125 58.207031 28.28125 L 9.261719 28.28125 C 7.800781 28.28125 6.613281 27.097656 6.613281 25.636719 L 6.613281 9.761719 C 6.613281 8.300781 7.800781 7.113281 9.261719 7.113281 Z M 9.261719 7.113281 "
       id="path19499" />
    <path
       style=" stroke:none;fill-rule:nonzero;fill:rgb(96.078432%,96.078432%,96.078432%);fill-opacity:1;"
       d="M 31.75 15.050781 L 58.207031 15.050781 C 58.9375 15.050781 59.53125 15.644531 59.53125 16.375 L 59.53125 25.636719 C 59.53125 26.367188 58.9375 26.957031 58.207031 26.957031 L 31.75 26.957031 C 31.019531 26.957031 30.425781 26.367188 30.425781 25.636719 L 30.425781 16.375 C 30.425781 15.644531 31.019531 15.050781 31.75 15.050781 Z M 31.75 15.050781 "
       id="path19501" />
    <path
       style="stroke:none;fill-rule:nonzero;fill:#93394a;fill-opacity:1"
       d="M 5.292969 12.40625 C 3.824219 12.40625 2.644531 13.585938 2.644531 15.050781 L 2.644531 54.738281 C 2.644531 56.207031 3.824219 57.386719 5.292969 57.386719 L 58.207031 57.386719 C 59.675781 57.386719 60.855469 56.207031 60.855469 54.738281 L 60.855469 22.988281 C 60.855469 21.523438 59.675781 20.34375 58.207031 20.34375 L 41.011719 20.34375 C 39.542969 20.34375 38.363281 19.164062 38.363281 17.699219 L 38.363281 15.050781 C 38.363281 13.585938 37.183594 12.40625 35.71875 12.40625 Z M 5.292969 12.40625 "
       id="path19503" />
    <path
       style=" stroke:none;fill-rule:nonzero;fill:rgb(100%,100%,100%);fill-opacity:0.37451;"
       d="M 24.472656 25.617188 C 22.273438 25.617188 20.503906 27.386719 20.503906 29.585938 C 20.503906 31.785156 22.273438 33.554688 24.472656 33.554688 C 24.847656 33.554688 25.210938 33.503906 25.554688 33.40625 L 29.21875 39.753906 C 28.339844 40.480469 27.78125 41.582031 27.78125 42.816406 C 27.78125 45.015625 29.550781 46.785156 31.75 46.785156 C 33.949219 46.785156 35.71875 45.015625 35.71875 42.816406 C 35.71875 41.582031 35.160156 40.480469 34.28125 39.753906 L 37.945312 33.40625 C 38.289062 33.503906 38.652344 33.554688 39.027344 33.554688 C 41.226562 33.554688 42.996094 31.785156 42.996094 29.585938 C 42.996094 27.386719 41.226562 25.617188 39.027344 25.617188 C 36.828125 25.617188 35.058594 27.386719 35.058594 29.585938 C 35.058594 30.933594 35.722656 32.121094 36.746094 32.839844 L 33.136719 39.09375 C 32.703125 38.933594 32.238281 38.847656 31.75 38.847656 C 31.261719 38.847656 30.796875 38.933594 30.363281 39.09375 L 26.753906 32.839844 C 27.777344 32.121094 28.441406 30.933594 28.441406 29.585938 C 28.441406 27.386719 26.671875 25.617188 24.472656 25.617188 Z M 24.472656 25.617188 "
       id="path19505" />
  </g>
</svg>
