<?xml version="1.0" encoding="UTF-8" standalone="no"?>
<svg
   xmlns:dc="http://purl.org/dc/elements/1.1/"
   xmlns:cc="http://creativecommons.org/ns#"
   xmlns:rdf="http://www.w3.org/1999/02/22-rdf-syntax-ns#"
   xmlns:svg="http://www.w3.org/2000/svg"
   xmlns="http://www.w3.org/2000/svg"
   xmlns:sodipodi="http://sodipodi.sourceforge.net/DTD/sodipodi-0.dtd"
   xmlns:inkscape="http://www.inkscape.org/namespaces/inkscape"
   width="64px"
   height="64px"
   viewBox="0 0 64 64"
   version="1.1"
   id="svg3799"
   sodipodi:docname="certificate-server.svg"
   inkscape:version="0.92.4 (fd57863, 2020-04-02)">
  <metadata
     id="metadata3805">
    <rdf:RDF>
      <cc:Work
         rdf:about="">
        <dc:format>image/svg+xml</dc:format>
        <dc:type
           rdf:resource="http://purl.org/dc/dcmitype/StillImage" />
      </cc:Work>
    </rdf:RDF>
  </metadata>
  <defs
     id="defs3803" />
  <sodipodi:namedview
     pagecolor="#ffffff"
     bordercolor="#666666"
     borderopacity="1"
     objecttolerance="10"
     gridtolerance="10"
     guidetolerance="10"
     inkscape:pageopacity="0"
     inkscape:pageshadow="2"
     inkscape:window-width="2492"
     inkscape:window-height="1384"
     id="namedview3801"
     showgrid="false"
     inkscape:zoom="18.78125"
     inkscape:cx="23.161398"
     inkscape:cy="32"
     inkscape:window-x="68"
     inkscape:window-y="28"
     inkscape:window-maximized="1"
     inkscape:current-layer="svg3799" />
  <g
     id="surface1">
    <path
       style="stroke:none;fill-rule:nonzero;fill:#733447;fill-opacity:1"
       d="M 9.261719 7.113281 L 58.207031 7.113281 C 59.667969 7.113281 60.855469 8.300781 60.855469 9.761719 L 60.855469 25.636719 C 60.855469 27.097656 59.667969 28.28125 58.207031 28.28125 L 9.261719 28.28125 C 7.800781 28.28125 6.613281 27.097656 6.613281 25.636719 L 6.613281 9.761719 C 6.613281 8.300781 7.800781 7.113281 9.261719 7.113281 Z M 9.261719 7.113281 "
       id="path3790" />
    <path
       style=" stroke:none;fill-rule:nonzero;fill:rgb(96.078432%,96.078432%,96.078432%);fill-opacity:1;"
       d="M 31.75 15.050781 L 58.207031 15.050781 C 58.9375 15.050781 59.53125 15.644531 59.53125 16.375 L 59.53125 25.636719 C 59.53125 26.367188 58.9375 26.957031 58.207031 26.957031 L 31.75 26.957031 C 31.019531 26.957031 30.425781 26.367188 30.425781 25.636719 L 30.425781 16.375 C 30.425781 15.644531 31.019531 15.050781 31.75 15.050781 Z M 31.75 15.050781 "
       id="path3792" />
    <path
       style="stroke:none;fill-rule:nonzero;fill:#93394a;fill-opacity:1"
       d="M 5.292969 12.40625 C 3.824219 12.40625 2.644531 13.585938 2.644531 15.050781 L 2.644531 54.738281 C 2.644531 56.207031 3.824219 57.386719 5.292969 57.386719 L 58.207031 57.386719 C 59.675781 57.386719 60.855469 56.207031 60.855469 54.738281 L 60.855469 22.988281 C 60.855469 21.523438 59.675781 20.328125 58.207031 20.34375 L 41.011719 20.34375 C 39.542969 20.34375 38.363281 19.164062 38.363281 17.699219 L 38.363281 15.050781 C 38.363281 13.585938 37.183594 12.40625 35.71875 12.40625 Z M 5.292969 12.40625 "
       id="path3794" />
    <path
       style=" stroke:none;fill-rule:nonzero;fill:rgb(100%,100%,100%);fill-opacity:0.37451;"
       d="M 31.75 24.3125 C 28.085938 24.3125 25.136719 27.261719 25.136719 30.925781 L 25.136719 36.21875 L 23.8125 36.21875 C 23.078125 36.21875 22.488281 36.808594 22.488281 37.542969 L 22.488281 44.15625 C 22.488281 44.890625 23.078125 45.480469 23.8125 45.480469 L 39.6875 45.480469 C 40.421875 45.480469 41.011719 44.890625 41.011719 44.15625 L 41.011719 37.542969 C 41.011719 36.808594 40.421875 36.21875 39.6875 36.21875 L 38.363281 36.21875 L 38.363281 30.925781 C 38.363281 27.261719 35.414062 24.3125 31.75 24.3125 Z M 31.75 26.957031 C 33.949219 26.957031 35.71875 28.726562 35.71875 30.925781 L 35.71875 36.21875 L 27.78125 36.21875 L 27.78125 30.925781 C 27.78125 28.726562 29.550781 26.957031 31.75 26.957031 Z M 31.75 26.957031 "
       id="path3796" />
  </g>
</svg>
