<?xml version="1.0" encoding="UTF-8" standalone="no"?>
<svg
   xmlns:dc="http://purl.org/dc/elements/1.1/"
   xmlns:cc="http://creativecommons.org/ns#"
   xmlns:rdf="http://www.w3.org/1999/02/22-rdf-syntax-ns#"
   xmlns:svg="http://www.w3.org/2000/svg"
   xmlns="http://www.w3.org/2000/svg"
   xmlns:sodipodi="http://sodipodi.sourceforge.net/DTD/sodipodi-0.dtd"
   xmlns:inkscape="http://www.inkscape.org/namespaces/inkscape"
   width="64px"
   height="64px"
   viewBox="0 0 64 64"
   version="1.1"
   id="svg18843"
   sodipodi:docname="folder-print.svg"
   inkscape:version="0.92.4 (fd57863, 2020-04-02)">
  <metadata
     id="metadata18849">
    <rdf:RDF>
      <cc:Work
         rdf:about="">
        <dc:format>image/svg+xml</dc:format>
        <dc:type
           rdf:resource="http://purl.org/dc/dcmitype/StillImage" />
      </cc:Work>
    </rdf:RDF>
  </metadata>
  <defs
     id="defs18847" />
  <sodipodi:namedview
     pagecolor="#ffffff"
     bordercolor="#666666"
     borderopacity="1"
     objecttolerance="10"
     gridtolerance="10"
     guidetolerance="10"
     inkscape:pageopacity="0"
     inkscape:pageshadow="2"
     inkscape:window-width="2492"
     inkscape:window-height="1384"
     id="namedview18845"
     showgrid="false"
     inkscape:zoom="3.6875"
     inkscape:cx="-58.033898"
     inkscape:cy="32"
     inkscape:window-x="68"
     inkscape:window-y="28"
     inkscape:window-maximized="1"
     inkscape:current-layer="svg18843" />
  <g
     id="surface1">
    <path
       style="stroke:none;fill-rule:nonzero;fill:#733447;fill-opacity:1"
       d="M 9.261719 7.113281 L 58.207031 7.113281 C 59.667969 7.113281 60.855469 8.300781 60.855469 9.761719 L 60.855469 25.636719 C 60.855469 27.097656 59.667969 28.28125 58.207031 28.28125 L 9.261719 28.28125 C 7.800781 28.28125 6.613281 27.097656 6.613281 25.636719 L 6.613281 9.761719 C 6.613281 8.300781 7.800781 7.113281 9.261719 7.113281 Z M 9.261719 7.113281 "
       id="path18834" />
    <path
       style=" stroke:none;fill-rule:nonzero;fill:rgb(96.078432%,96.078432%,96.078432%);fill-opacity:1;"
       d="M 31.75 15.050781 L 58.207031 15.050781 C 58.9375 15.050781 59.53125 15.644531 59.53125 16.375 L 59.53125 25.636719 C 59.53125 26.367188 58.9375 26.957031 58.207031 26.957031 L 31.75 26.957031 C 31.019531 26.957031 30.425781 26.367188 30.425781 25.636719 L 30.425781 16.375 C 30.425781 15.644531 31.019531 15.050781 31.75 15.050781 Z M 31.75 15.050781 "
       id="path18836" />
    <path
       style="stroke:none;fill-rule:nonzero;fill:#93394a;fill-opacity:1"
       d="M 5.292969 12.40625 C 3.824219 12.40625 2.644531 13.585938 2.644531 15.050781 L 2.644531 54.738281 C 2.644531 56.207031 3.824219 57.386719 5.292969 57.386719 L 58.207031 57.386719 C 59.675781 57.386719 60.855469 56.207031 60.855469 54.738281 L 60.855469 22.988281 C 60.855469 21.523438 59.675781 20.34375 58.207031 20.34375 L 41.011719 20.34375 C 39.542969 20.34375 38.363281 19.164062 38.363281 17.699219 L 38.363281 15.050781 C 38.363281 13.585938 37.183594 12.40625 35.71875 12.40625 Z M 5.292969 12.40625 "
       id="path18838" />
    <path
       style=" stroke:none;fill-rule:nonzero;fill:rgb(100%,100%,100%);fill-opacity:0.37451;"
       d="M 25.136719 25.636719 C 24.402344 25.636719 23.816406 26.226562 23.8125 26.957031 L 23.8125 35.558594 L 25.136719 35.558594 L 25.136719 36.878906 L 38.363281 36.878906 L 38.363281 35.558594 L 39.6875 35.558594 L 39.6875 26.957031 C 39.6875 26.226562 39.097656 25.636719 38.363281 25.636719 Z M 22.488281 38.203125 C 21.757812 38.203125 21.167969 38.792969 21.167969 39.527344 L 21.167969 44.15625 C 21.167969 44.890625 21.757812 45.480469 22.488281 45.480469 L 22.488281 42.832031 L 41.011719 42.832031 L 41.011719 44.15625 L 23.8125 44.15625 L 23.8125 45.480469 C 23.8125 46.210938 24.402344 46.800781 25.136719 46.800781 L 38.363281 46.800781 C 39.097656 46.800781 39.6875 46.210938 39.6875 45.480469 L 39.6875 44.15625 L 41.011719 44.15625 L 41.011719 45.480469 C 41.742188 45.480469 42.332031 44.890625 42.332031 44.15625 L 42.332031 39.527344 C 42.332031 38.792969 41.742188 38.203125 41.011719 38.203125 Z M 22.488281 38.203125 "
       id="path18840" />
  </g>
</svg>
