<?xml version="1.0" encoding="UTF-8" standalone="no"?>
<svg
   xmlns:dc="http://purl.org/dc/elements/1.1/"
   xmlns:cc="http://creativecommons.org/ns#"
   xmlns:rdf="http://www.w3.org/1999/02/22-rdf-syntax-ns#"
   xmlns:svg="http://www.w3.org/2000/svg"
   xmlns="http://www.w3.org/2000/svg"
   xmlns:sodipodi="http://sodipodi.sourceforge.net/DTD/sodipodi-0.dtd"
   xmlns:inkscape="http://www.inkscape.org/namespaces/inkscape"
   width="64px"
   height="64px"
   viewBox="0 0 64 64"
   version="1.1"
   id="svg31724"
   sodipodi:docname="desktop.svg"
   inkscape:version="0.92.4 (fd57863, 2020-04-02)">
  <metadata
     id="metadata31730">
    <rdf:RDF>
      <cc:Work
         rdf:about="">
        <dc:format>image/svg+xml</dc:format>
        <dc:type
           rdf:resource="http://purl.org/dc/dcmitype/StillImage" />
      </cc:Work>
    </rdf:RDF>
  </metadata>
  <defs
     id="defs31728" />
  <sodipodi:namedview
     pagecolor="#ffffff"
     bordercolor="#666666"
     borderopacity="1"
     objecttolerance="10"
     gridtolerance="10"
     guidetolerance="10"
     inkscape:pageopacity="0"
     inkscape:pageshadow="2"
     inkscape:window-width="2492"
     inkscape:window-height="1384"
     id="namedview31726"
     showgrid="false"
     inkscape:zoom="14.75"
     inkscape:cx="8.3224157"
     inkscape:cy="37.430225"
     inkscape:window-x="68"
     inkscape:window-y="28"
     inkscape:window-maximized="1"
     inkscape:current-layer="svg31724" />
  <g
     id="surface1">
    <path
       style="stroke:none;fill-rule:nonzero;fill:#374746;fill-opacity:1"
       d="M 5.292969 7.113281 L 58.207031 7.113281 C 59.667969 7.113281 60.855469 8.1875 60.855469 9.507812 L 60.855469 54.992188 C 60.855469 56.3125 59.667969 57.386719 58.207031 57.386719 L 5.292969 57.386719 C 3.832031 57.386719 2.644531 56.3125 2.644531 54.992188 L 2.644531 9.507812 C 2.644531 8.1875 3.832031 7.113281 5.292969 7.113281 Z M 5.292969 7.113281 "
       id="path31705" />
    <path
       style="stroke:none;fill-rule:nonzero;fill:#80a6a3;fill-opacity:1"
       d="M 4.324219 7.277344 C 3.339844 7.628906 2.644531 8.492188 2.644531 9.507812 L 2.644531 54.992188 C 2.644531 56.316406 3.824219 57.386719 5.292969 57.386719 L 58.207031 57.386719 C 58.9375 57.386719 59.59375 57.121094 60.074219 56.691406 Z M 4.324219 7.277344 "
       id="path31707" />
    <path
       style="stroke:none;fill-rule:nonzero;fill:#93394a;fill-opacity:1"
       d="M 60.0625 7.796875 L 3.4375 56.703125 C 3.914062 57.125 4.566406 57.386719 5.292969 57.386719 L 58.207031 57.386719 C 59.675781 57.386719 60.855469 56.316406 60.855469 54.992188 L 60.855469 9.507812 C 60.855469 8.835938 60.550781 8.230469 60.0625 7.796875 Z M 60.0625 7.796875 "
       id="path31709" />
    <path
       style="stroke:none;fill-rule:nonzero;fill:#733447;fill-opacity:1"
       d="M 2.644531 12.40625 L 2.644531 9.761719 C 2.644531 8.292969 3.824219 7.113281 5.292969 7.113281 L 58.207031 7.113281 C 59.675781 7.113281 60.855469 8.292969 60.855469 9.761719 L 60.855469 12.40625 Z M 2.644531 12.40625 "
       id="path31711" />
    <path
       style="stroke:none;fill-rule:nonzero;fill:#733447;fill-opacity:1"
       d="M 6.613281 16.375 L 9.261719 16.375 C 9.992188 16.375 10.582031 16.96875 10.582031 17.699219 L 10.582031 20.34375 C 10.582031 21.074219 9.992188 21.667969 9.261719 21.667969 L 6.613281 21.667969 C 5.882812 21.667969 5.292969 21.074219 5.292969 20.34375 L 5.292969 17.699219 C 5.292969 16.96875 5.882812 16.375 6.613281 16.375 Z M 6.613281 16.375 "
       id="path31713" />
    <path
       style="stroke:none;fill-rule:nonzero;fill:#733447;fill-opacity:1"
       d="M 6.613281 24.3125 L 9.261719 24.3125 C 9.992188 24.3125 10.582031 24.90625 10.582031 25.636719 L 10.582031 28.28125 C 10.582031 29.011719 9.992188 29.605469 9.261719 29.605469 L 6.613281 29.605469 C 5.882812 29.605469 5.292969 29.011719 5.292969 28.28125 L 5.292969 25.636719 C 5.292969 24.90625 5.882812 24.3125 6.613281 24.3125 Z M 6.613281 24.3125 "
       id="path31715" />
    <path
       style="stroke:none;fill-rule:nonzero;fill:#733447;fill-opacity:1"
       d="M 6.613281 32.25 L 9.261719 32.25 C 9.992188 32.25 10.582031 32.84375 10.582031 33.574219 L 10.582031 36.21875 C 10.582031 36.949219 9.992188 37.542969 9.261719 37.542969 L 6.613281 37.542969 C 5.882812 37.542969 5.292969 36.949219 5.292969 36.21875 L 5.292969 33.574219 C 5.292969 32.84375 5.882812 32.25 6.613281 32.25 Z M 6.613281 32.25 "
       id="path31717" />
    <path
       style="stroke:none;fill-rule:nonzero;fill:#733447;fill-opacity:1"
       d="M 6.613281 40.1875 L 9.261719 40.1875 C 9.992188 40.1875 10.582031 40.78125 10.582031 41.511719 L 10.582031 44.15625 C 10.582031 44.886719 9.992188 45.480469 9.261719 45.480469 L 6.613281 45.480469 C 5.882812 45.480469 5.292969 44.886719 5.292969 44.15625 L 5.292969 41.511719 C 5.292969 40.78125 5.882812 40.1875 6.613281 40.1875 Z M 6.613281 40.1875 "
       id="path31719" />
    <path
       style="stroke:none;fill-rule:nonzero;fill:#733447;fill-opacity:1"
       d="M 52.917969 48.125 L 55.5625 48.125 C 56.292969 48.125 56.886719 48.71875 56.886719 49.449219 L 56.886719 52.09375 C 56.886719 52.824219 56.292969 53.417969 55.5625 53.417969 L 52.917969 53.417969 C 52.1875 53.417969 51.59375 52.824219 51.59375 52.09375 L 51.59375 49.449219 C 51.59375 48.71875 52.1875 48.125 52.917969 48.125 Z M 52.917969 48.125 "
       id="path31721" />
  </g>
</svg>
